# xmcd
#
# Track frame offsets:
#	150
#	16543
#	31172
#	48708
#	63339
#	78388
#	92345
#	110563
#	129340
#	143844
#	157580
#	177824
#	191295
#	204813
#	221917
#	234930
#	250087
#	263760
#	285052
#	301971
#
# Disc length: 4215 seconds
#
# Revision: 0
# Processed by: cddbd v1.5.2PL0 Copyright (c) Steve Scherf et al.
# Submitted via: audiograbber 1.83.01
#
DISCID=f0107514
DTITLE=Various Artist - Country February 2015
DYEAR=2015
DGENRE=Country
TTITLE0=Blake Shelton - Lonely Tonight
TTITLE1=Colt Ford - Crank It Up
TTITLE2=SHANE GAMBLE - BEAUTIFUL WORK
TTITLE3=CLEDUS JUDD - LUKE BRYAN
TTITLE4=LUCY ANGEL - CRAZY TOO
TTITLE5=KELLEIGH BANNEN - SMOKE WHEN I DRINK
TTITLE6=RACHELE LYNAE - WHOLE LOTTA NOTHIN
TTITLE7=MICKEY GUYTON - BETTER THAN YOU LEFT ME
TTITLE8=LITTLE BIG TOWN - GIRL CRUSH
TTITLE9=LONESTAR - PRETTY GOOD DAY
TTITLE10=AARON WATSON - THAT LOOK
TTITLE11=ARIANA HODES - YOU DONT HAVE TO SAY U LOVE ME
TTITLE12=GLEN CAMPBELL - I'M NOT GOING TO MISS YOU
TTITLE13=DANIEL LEE - HEAD OVER HEELS
TTITLE14=MO PITNEY - COUNTRY
TTITLE15=MIRANDA LAMBERT - LITTLE RED WAGON
TTITLE16=FRANKLIN BALLARD - YOUNG and CRAZY
TTITLE17=DAVISSON BROTHERS - JESSE JAMES
TTITLE18=BIG and RICH - RUN AWAY WITH YOU
TTITLE19=ALLIE LOUISE - IT'S GETTING OLD
EXTD=
EXTT0=
EXTT1=
EXTT2=
EXTT3=
EXTT4=
EXTT5=
EXTT6=
EXTT7=
EXTT8=
EXTT9=
EXTT10=
EXTT11=
EXTT12=
EXTT13=
EXTT14=
EXTT15=
EXTT16=
EXTT17=
EXTT18=
EXTT19=
PLAYORDER=
